<svg xmlns="http://www.w3.org/2000/svg" xmlns:xlink="http://www.w3.org/1999/xlink" version="1.1" x="0px" y="0px" viewBox="0 0 200 125" enable-background="new 0 0 200 100" xml:space="preserve"><g><circle fill="#000000" cx="55.4" cy="18.4" r="2"/><circle fill="#000000" cx="19.3" cy="86.7" r="2"/><circle fill="#000000" cx="9.1" cy="73.6" r="1.3"/><path d="M23.2,38.2c0,0-0.5-0.5-1.2-0.8c-0.3-0.2-0.7-0.3-1.1-0.4c-0.1-0.1-0.2-0.2-0.3-0.3c-0.1-0.4-0.2-0.8-0.4-1.1   c-0.3-0.7-0.8-1.2-0.8-1.2s-0.5,0.5-0.8,1.2c-0.2,0.3-0.3,0.7-0.4,1.1c-0.1,0.1-0.2,0.2-0.3,0.3c-0.4,0.1-0.8,0.2-1.1,0.4   c-0.7,0.3-1.2,0.8-1.2,0.8s0.5,0.5,1.2,0.8c0.3,0.2,0.7,0.3,1.1,0.4c0.1,0.1,0.2,0.2,0.3,0.3c0.1,0.4,0.2,0.8,0.4,1.1   c0.3,0.7,0.8,1.2,0.8,1.2s0.5-0.5,0.8-1.2c0.2-0.3,0.3-0.7,0.4-1.1c0.1-0.1,0.2-0.2,0.3-0.3c0.4-0.1,0.8-0.2,1.1-0.4   C22.7,38.7,23.2,38.2,23.2,38.2z"/><path d="M43.1,16.4c0,0-5.9-0.5-6.6-0.8c-0.3-0.2-0.7-0.3-1.1-0.4c-0.1-0.1-0.2-0.2-0.3-0.3c-0.1-0.4-0.2-0.8-0.4-1.1   C34.4,13,33.9,5,33.9,5s-0.5,8-0.8,8.7c-0.2,0.3-0.3,0.7-0.4,1.1c-0.1,0.1-0.2,0.2-0.3,0.3c-0.4,0.1-0.8,0.2-1.1,0.4   c-0.7,0.3-7.2,0.8-7.2,0.8s6.5,0.5,7.2,0.8c0.3,0.2,0.7,0.3,1.1,0.4c0.1,0.1,0.2,0.2,0.3,0.3c0.1,0.4,0.2,0.8,0.4,1.1   c0.3,0.7,0.8,7.5,0.8,7.5s0.5-6.8,0.8-7.5c0.2-0.3,0.3-0.7,0.4-1.1c0.1-0.1,0.2-0.2,0.3-0.3c0.4-0.1,0.8-0.2,1.1-0.4   C37.2,16.9,43.1,16.4,43.1,16.4z"/><g><path fill="#000000" d="M59.9,30.4c-17.8,0-32.3,14.5-32.3,32.3C27.6,80.5,42,95,59.9,95s32.3-14.5,32.3-32.3    C92.2,44.9,77.7,30.4,59.9,30.4z M59.9,92c-16.2,0-29.3-13.2-29.3-29.3c0-16.2,13.2-29.3,29.3-29.3s29.3,13.2,29.3,29.3    C89.2,78.9,76,92,59.9,92z"/><path fill="#000000" d="M75.7,43.5c0.3-0.5,0.3-1.1,0-1.7c-0.3-0.6-0.9-1.2-1.6-1.6c-1.5-0.9-3.2-0.8-3.7,0.2    c-0.3,0.5-0.3,1.1,0,1.7c0.1,0.3,0.4,0.6,0.6,0.9c0.3,0.3,0.6,0.5,1,0.8c0.7,0.4,1.5,0.6,2.2,0.6C74.9,44.3,75.5,44,75.7,43.5z"/><path fill="#000000" d="M51.6,47.8c0.4,0.4,0.9,0.7,1.5,0.7h0c0,0,0,0,0,0c-0.1,1.3,0.5,2.6,1.5,3.2c0.3,0.2,0.6,0.3,1,0.3    c1,0.2,2.2-0.2,3.1-1c0.8-0.1,1.4-0.5,1.9-1.1c0.5-0.6,0.8-1.3,0.8-2.1c0-0.9-0.4-1.8-1.1-2.4c-0.1-0.3-0.3-0.6-0.5-0.8    c-0.2-0.3-0.5-0.5-0.7-0.6c-0.3-0.2-0.7-0.3-1.1-0.4c-0.4,0-0.8,0-1.2,0.1c-0.8,0.2-1.6,0.7-2.2,1.4c-0.2-0.2-0.4-0.3-0.6-0.4    c-0.2-0.1-0.5-0.2-0.8-0.2c-0.8,0-1.5,0.5-1.8,1.2c-0.1,0.2-0.2,0.5-0.2,0.8s0.1,0.5,0.2,0.8C51.4,47.5,51.5,47.7,51.6,47.8z"/><path fill="#000000" d="M68.3,46.5c-0.3,0-0.6,0-0.9,0.1c-0.6,0.1-1.1,0.4-1.5,0.8c-0.2,0.2-0.4,0.4-0.5,0.6c-2.2,0.2-4,2-4,4.3    c0,1.8,1.1,3.3,2.6,4c0.1,0,0.1,0,0.2,0.1c0.1-0.5,0.6-0.9,1.1-0.9c0.6,0,1.1,0.5,1.2,1c1.8-0.3,3.2-1.7,3.5-3.5    c1.1-0.6,1.8-1.7,1.8-3c0-1-0.4-1.8-1-2.5C70.1,46.9,69.2,46.5,68.3,46.5z"/><path fill="#000000" d="M80.1,48.7c-0.4-0.5-0.8-0.9-1.4-1.2c-0.4-0.2-0.9-0.3-1.4-0.3c-0.5,0-0.9,0.1-1.4,0.3    c-0.8,0.4-1.5,1-1.9,1.9c-0.2,0.4-0.3,0.9-0.3,1.4c0,0.5,0.1,0.9,0.3,1.4c0.4,0.8,1,1.5,1.9,1.9c0.4,0.2,0.9,0.3,1.4,0.3    c1,0,1.8-0.4,2.5-1c0.6-0.6,1-1.5,1-2.5C80.8,50,80.5,49.3,80.1,48.7z"/><path fill="#000000" d="M75,58.4c-0.2,0-0.4,0-0.6,0.1c-0.5,0.2-0.9,0.8-0.9,1.4c0,0.6,0.4,1.1,0.9,1.4c0.2,0.1,0.4,0.1,0.6,0.1    c0.8,0,1.5-0.7,1.5-1.5C76.5,59.1,75.9,58.4,75,58.4z"/><circle fill="#000000" cx="44.5" cy="43.2" r="1.5"/><path fill="#000000" d="M79.2,44.2c0.3,0,0.5-0.1,0.7-0.2c-0.6-0.7-1.3-1.3-2-2l0,0c-0.1,0.2-0.2,0.4-0.2,0.7    c0,0.4,0.2,0.8,0.4,1.1C78.5,44.1,78.8,44.2,79.2,44.2z"/><circle fill="#000000" cx="66.6" cy="81" r="0.6"/><path fill="#000000" d="M54.3,55.2c-0.3,0.3-0.5,0.6-0.5,1c0,0.4,0.2,0.7,0.5,1c0.3,0.3,0.8,0.4,1.3,0.4c0.5,0,1-0.2,1.3-0.4    c0.3-0.3,0.5-0.6,0.5-1c0-0.4-0.2-0.7-0.5-1c-0.3-0.3-0.8-0.4-1.3-0.4C55.1,54.8,54.6,55,54.3,55.2z"/><path fill="#000000" d="M58.2,72L58.2,72c-2.2,0-4.1,1.8-4.1,4.1c0,2.2,1.8,3.4,4.1,3.4h0c1.4,0,2.6-0.4,3.4-1.3    c0.4-0.5,0.7-1.2,0.7-2.1c0-0.8-0.3-1.6-0.7-2.3C60.9,72.7,59.6,72,58.2,72z"/><path fill="#000000" d="M49.9,74.9c0.4,0.5,1.1,0.9,1.8,0.9c0.3,0,0.6-0.1,0.9-0.2c0.8-0.3,1.4-1.1,1.4-2.1c0-0.6-0.3-1.2-0.7-1.6    c-0.2-0.2-0.4-0.4-0.7-0.5c-0.3-0.1-0.6-0.2-0.9-0.2c-0.9,0-1.7,0.6-2.1,1.4c-0.1-0.3-0.3-0.7-0.5-1c-0.2-0.3-0.5-0.6-0.8-0.8    c0,0,0,0,0,0c2.9-0.5,5.1-3.1,5.1-6.1c0-3.4-2.8-6.2-6.2-6.2c-0.4,0-0.7,0-1,0.1c-0.3,0.1-0.7,0.1-1,0.3c0.7-0.7,1.2-1.5,1.4-2.5    c0.1-0.3,0.1-0.7,0.1-1c0-0.2,0-0.5-0.1-0.7c0.4-0.4,0.8-0.9,1-1.4c0.2-0.5,0.4-1.1,0.4-1.8c0-2.5-2-4.5-4.5-4.5    c-0.3,0-0.6,0-0.9,0.1c-0.6,0.1-1.1,0.3-1.5,0.6c-0.5,0.3-0.9,0.7-1.2,1.1c-0.2,0.3-0.4,0.6-0.6,1c-0.1,0.4-0.2,0.7-0.3,1.1h0    c0.9,0.1,1.7,0.9,1.7,1.9c0,1-0.9,1.9-1.9,1.9c-0.8,0-1.5-0.5-1.8-1.2c-0.2,0.6-0.4,1.2-0.4,1.9c0,1,0.3,1.9,0.8,2.7    c-0.4,0.4-0.9,0.4-1.3,0.1c-0.3-0.2-0.6-0.5-0.8-0.8c-0.1-0.2-0.2-0.3-0.4-0.5c-0.2-0.3-0.4-0.7-0.5-0.9c-0.3-0.6-0.4-1.3-0.5-1.6    c-0.7,2.3-1.2,4.7-1.3,7.3c0,0.4,0,0.8,0,1.1c0,0.3,0,0.7,0,1c1.1-0.3,2.4,0.6,2.9,2.2c0.5,1.6,0,3.1-1.2,3.5    c-0.3,0.1-0.6,0.1-1,0c0,0.1,0.1,0.2,0.1,0.4c0.6,2.3,1.6,4.5,2.7,6.6c0-0.2,0.1-0.3,0.2-0.4c0.4-0.3,1.1-0.1,1.5,0.4    c0.4,0.5,0.4,1.2,0,1.5c0,0,0,0,0,0c0,0,0,0,0,0c0.2,0.1,0.4,0.3,0.7,0.4c0.7,0.4,1.4,0.6,2.2,0.7c0.4,0.1,0.7,0,1,0    C41.2,79.1,41,79.5,41,80c0,0.7,0.6,1.3,1.3,1.3c0.7,0,1.3-0.6,1.3-1.3c0-0.6-0.4-1-0.9-1.2c0.3-0.1,0.5-0.1,0.8-0.2    c0.3,0.1,0.6,0.2,0.9,0.3c0.3,0.1,0.6,0.1,0.9,0.1C47.7,78.9,49.6,77.2,49.9,74.9L49.9,74.9z M42.2,72.3c-0.7,0-1.2-0.5-1.2-1.2    c0-0.7,0.5-1.2,1.2-1.2c0.7,0,1.2,0.5,1.2,1.2C43.4,71.8,42.8,72.3,42.2,72.3z M46.1,68.2c-1,0-1.8-0.8-1.8-1.8    c0-0.1,0-0.3,0.1-0.4c-0.3,0.2-0.6,0.4-1,0.5c-1.4,0.4-2.8-0.3-3.2-1.5c-0.2-0.6-0.1-1.3,0.2-1.8c-0.2,0-0.4,0-0.6,0    c-0.4-1-1.2-1.9-2.1-2.5l1.6-1h0c0.3,0.2,0.7,0.3,1.1,0.4c0.4,0.1,0.8,0.1,1.2,0.1c0.5,0,1-0.1,1.4-0.2c-0.6,0.6-1.1,1.3-1.4,2.1    h0c0.2-0.1,0.3-0.2,0.5-0.3c1.4-0.4,2.8,0.3,3.2,1.5c0.2,0.5,0.1,1-0.1,1.5c0.3-0.2,0.6-0.3,0.9-0.3c1,0,1.8,0.8,1.8,1.8    C47.8,67.4,47.1,68.2,46.1,68.2z"/><path fill="#000000" d="M53.3,82.4c0-0.9-0.5-1.7-1.3-2c-0.3-0.1-0.5-0.2-0.8-0.2c-1.2,0-2.4,1-2.2,2.2c0.1,0.8,1.3,1,2.2,1.8    c0.1,0.1,0.2,0.2,0.4,0.2c0.1,0,0.2,0,0.4,0c0.1,0,0.2-0.1,0.4-0.1c0.1-0.1,0.2-0.1,0.3-0.2C53,83.6,53.3,83,53.3,82.4z"/><path fill="#000000" d="M55.8,88.6c-0.4-0.4-0.9-0.7-1.5-0.7c-0.3,0-0.6,0-0.9,0.1c-0.3,0.1-0.5,0.2-0.7,0.4    c-0.2,0.2-0.4,0.4-0.5,0.6c1.3,0.4,2.7,0.7,4.1,0.9c0-0.2,0-0.3-0.1-0.5C56.2,89.1,56,88.9,55.8,88.6z"/></g></g><text x="125" y="85" fill="#000000" font-size="48px" font-weight="bold" font-family="'Helvetica Neue', Helvetica, Arial-Unicode, Arial, Sans-serif">Io</text></svg>